<?xml version="1.0" encoding="UTF-8" standalone="no"?>
<!-- Created with Inkscape (http://www.inkscape.org/) -->

<svg
   version="1.1"
   id="svg1"
   width="2901.76"
   height="1785.6"
   viewBox="0 0 2901.76 1785.6"
   sodipodi:docname="upload_7oixdtftsdtmrvdr4vwmmdqbbt.pdf"
   xmlns:inkscape="http://www.inkscape.org/namespaces/inkscape"
   xmlns:sodipodi="http://sodipodi.sourceforge.net/DTD/sodipodi-0.dtd"
   xmlns:xlink="http://www.w3.org/1999/xlink"
   xmlns="http://www.w3.org/2000/svg"
   xmlns:svg="http://www.w3.org/2000/svg">
  <defs
     id="defs1">
    <clipPath
       clipPathUnits="userSpaceOnUse"
       id="clipPath1">
      <path
         id="path1"
         d="M 0.01055439,-0.00149633 V 2.8967629e-7 H 0.0018097 V -0.01205341 h 0.00850776 v 0.0014966 H 0.00353279 v 0.00370386 h 0.00604159 v 0.00146432 H 0.00353279 v 0.00389228 z m 0.0051827,-0.00906046 h -0.00413 v -0.0014966 h 0.009967 v 0.0014966 h -0.00413 V 2.8967629e-7 H 0.01573719 Z M 0.0305301,-0.00301448 H 0.02412239 L 0.02279777,2.8967629e-7 H 0.02102621 L 0.02648626,-0.01205341 h 0.0017015 L 0.03366402,2.8967629e-7 h -0.0018093 z m -6.0308e-4,-0.00137818 -0.0026008,-0.00590572 -0.0026008,0.00590572 z m 0.01023086,-0.00766075 c 0.0015616,0 0.0027892,3.7416e-4 0.0036831,0.0011198 8.9655e-4,7.4696e-4 0.0013462,0.00177387 0.0013462,0.00307937 0,0.00131088 -4.4961e-4,0.00233914 -0.0013462,0.00308475 -8.9386e-4,7.4697e-4 -0.0021216,0.00111978 -0.0036831,0.00111978 H 0.0371802 V 2.8967629e-7 H 0.03545711 V -0.01205341 Z m -5.385e-5,0.00690167 c 0.0010904,0 0.0019237,-2.3149e-4 0.0024985,-6.9447e-4 5.7346e-4,-4.6567e-4 8.6154e-4,-0.00113592 8.6154e-4,-0.00200805 0,-8.7213e-4 -2.8808e-4,-0.00153969 -8.6154e-4,-0.00200267 -5.7482e-4,-4.6567e-4 -0.0014081,-6.9986e-4 -0.0024985,-6.9986e-4 H 0.0371802 v 0.00540505 z m 0.01468936,0.00213726 H 0.04838568 L 0.04706106,2.8967629e-7 H 0.0452895 L 0.05074955,-0.01205341 H 0.0524511 L 0.05792731,2.8967629e-7 h -0.0018093 z m -6.0308e-4,-0.00137818 -0.0026008,-0.00590572 -0.0026008,0.00590572 z M 0.06710412,-0.01205341 V 2.8967629e-7 H 0.06540257 V -0.01055679 h -0.0027193 v -0.0014966 z m 0,0"
         style="fill:none;stroke:none"
         aria-label="ETAPA 1"
         transform="matrix(1,0,0,1.6254355,0.46554,0.88137998)" />
    </clipPath>
    <clipPath
       clipPathUnits="userSpaceOnUse"
       id="clipPath2">
      <path
         id="path2"
         d="M 0.01055439,-0.00149706 V -4.3963954e-7 H 0.0018097 V -0.01205413 h 0.00850776 v 0.0014966 H 0.00353279 v 0.00370386 h 0.00604159 v 0.00146432 H 0.00353279 v 0.00389228 z m 0.0051827,-0.00906046 h -0.00413 v -0.0014966 h 0.009967 v 0.0014966 h -0.00413 V -4.3963954e-7 H 0.01573719 Z M 0.0305301,-0.00301521 H 0.02412239 L 0.02279777,-4.3963954e-7 H 0.02102621 L 0.02648626,-0.01205413 h 0.0017015 L 0.03366402,-4.3963954e-7 h -0.0018093 z m -6.0308e-4,-0.00137818 -0.0026008,-0.00590572 -0.0026008,0.00590572 z m 0.01023086,-0.00766074 c 0.0015616,0 0.0027892,3.7415e-4 0.0036831,0.0011198 8.9655e-4,7.4696e-4 0.0013462,0.00177387 0.0013462,0.00307937 0,0.00131089 -4.4961e-4,0.00233914 -0.0013462,0.00308475 -8.9386e-4,7.4697e-4 -0.0021216,0.00111978 -0.0036831,0.00111978 H 0.0371802 V -4.3963954e-7 H 0.03545711 V -0.01205413 Z m -5.385e-5,0.00690166 c 0.0010904,0 0.0019237,-2.3149e-4 0.0024985,-6.9447e-4 5.7346e-4,-4.6567e-4 8.6154e-4,-0.00113592 8.6154e-4,-0.00200805 0,-8.7213e-4 -2.8808e-4,-0.00153969 -8.6154e-4,-0.00200267 -5.7482e-4,-4.6567e-4 -0.0014081,-6.9986e-4 -0.0024985,-6.9986e-4 H 0.0371802 v 0.00540505 z m 0.01468936,0.00213726 H 0.04838568 L 0.04706106,-4.3963954e-7 H 0.0452895 L 0.05074955,-0.01205413 H 0.0524511 L 0.05792731,-4.3963954e-7 h -0.0018093 z m -6.0308e-4,-0.00137818 -0.0026008,-0.00590572 -0.0026008,0.00590572 z m 0.01765227,0.00289633 V -4.3963954e-7 H 0.0631787 V -0.00117405 l 0.0049108,-0.00473211 c 5.9501e-4,-5.7334e-4 9.9616e-4,-0.00107132 0.0012008,-0.00149123 2.0731e-4,-4.1992e-4 3.1231e-4,-8.4118e-4 3.1231e-4,-0.00126513 0,-6.3122e-4 -2.2077e-4,-0.00112112 -6.6231e-4,-0.0014697 -4.4154e-4,-3.5127e-4 -0.0010756,-5.2758e-4 -0.0019008,-5.2758e-4 -0.0013327,0 -0.0023612,4.3606e-4 -0.0030854,0.00130819 L 0.0627856,-0.01036909 c 4.6981e-4,-5.7335e-4 0.001085,-0.0010202 0.0018469,-0.0013405 7.6462e-4,-3.2301e-4 0.0016167,-4.8452e-4 0.0025577,-4.8452e-4 0.0012627,0 0.0022683,3.0148e-4 0.0030154,9.0443e-4 7.4578e-4,6.0296e-4 0.00112,0.00142125 0.00112,0.00245489 0,6.4333e-4 -1.3865e-4,0.00125167 -4.1461e-4,0.00182501 -2.7731e-4,5.7469e-4 -7.9963e-4,0.00123013 -0.0015669,0.00196498 l -0.0036831,0.00354774 z m 0,0"
         style="fill:none;stroke:none"
         aria-label="ETAPA 2"
         transform="matrix(1,0,0,1.6254355,0.46554,0.69196001)" />
    </clipPath>
    <clipPath
       clipPathUnits="userSpaceOnUse"
       id="clipPath3">
      <path
         id="path3"
         d="M 0.01055439,-0.0014968 V -1.8674344e-7 H 0.0018097 V -0.01205388 h 0.00850776 v 0.0014966 H 0.00353279 v 0.00370386 h 0.00604159 v 0.00146431 H 0.00353279 v 0.00389229 z m 0.0051827,-0.00906046 h -0.00413 v -0.0014966 h 0.009967 v 0.0014966 h -0.00413 V -1.8674344e-7 h -0.0017069 z m 0.01479301,0.0075423 H 0.02412239 L 0.02279777,-1.8674344e-7 H 0.02102621 L 0.02648626,-0.01205388 h 0.0017015 L 0.03366402,-1.8674344e-7 h -0.0018093 z m -6.0308e-4,-0.00137818 -0.0026008,-0.00590571 -0.0026008,0.00590571 z m 0.01023086,-0.00766074 c 0.0015616,0 0.0027892,3.7415e-4 0.0036831,0.0011198 8.9655e-4,7.4696e-4 0.0013462,0.00177387 0.0013462,0.00307937 0,0.00131089 -4.4961e-4,0.00233914 -0.0013462,0.00308476 -8.9386e-4,7.4696e-4 -0.0021216,0.00111977 -0.0036831,0.00111977 H 0.0371802 V -1.8674344e-7 H 0.03545711 V -0.01205388 Z m -5.385e-5,0.00690167 c 0.0010904,0 0.0019237,-2.3149e-4 0.0024985,-6.9448e-4 5.7346e-4,-4.6567e-4 8.6154e-4,-0.00113592 8.6154e-4,-0.00200805 0,-8.7213e-4 -2.8808e-4,-0.00153968 -8.6154e-4,-0.00200267 -5.7482e-4,-4.6567e-4 -0.0014081,-6.9985e-4 -0.0024985,-6.9985e-4 H 0.0371802 v 0.00540505 z m 0.01468936,0.00213725 H 0.04838568 L 0.04706106,-1.8674344e-7 H 0.0452895 L 0.05074955,-0.01205388 H 0.0524511 L 0.05792731,-1.8674344e-7 h -0.0018093 z m -6.0308e-4,-0.00137818 -0.0026008,-0.00590571 -0.0026008,0.00590571 z M 0.0679872,-0.00699338 c 0.0011806,1.1575e-4 0.0020798,4.7914e-4 0.0026977,0.00109286 6.2058e-4,6.1372e-4 9.3155e-4,0.00139837 9.3155e-4,0.0023526 0,6.8909e-4 -1.7231e-4,0.00131223 -5.1693e-4,0.00186808 -3.4462e-4,5.5719e-4 -8.5886e-4,9.9998422e-4 -0.00154,0.001329725 -6.825e-4,3.27048669e-4 -0.0015171,4.8990006e-4 -0.0025039,4.8990006e-4 -8.6155e-4,0 -0.0016894,-1.305502885e-4 -0.0024823,-3.8761323e-4 -7.902e-4,-2.5840882e-4 -0.0014377,-6.1641271e-4 -0.0019439,-0.001076702 l 7.9155e-4,-0.00136203 c 4.1193e-4,3.9165e-4 9.3962e-4,7.0524e-4 0.0015831,9.4211e-4 6.4212e-4,2.3419e-4 0.001326,3.4993e-4 0.0020516,3.4993e-4 8.9385e-4,0 0.0015898,-1.8842e-4 0.0020893,-5.6527e-4 5.0212e-4,-3.7953e-4 7.5385e-4,-9.0443e-4 7.5385e-4,-0.00157198 0,-6.6352e-4 -2.477e-4,-0.00117899 -7.4308e-4,-0.00154507 -4.927e-4,-3.6877e-4 -0.0012385,-5.5451e-4 -0.00224,-5.5451e-4 H 0.0659518 v -0.0012059 L 0.0689834,-0.01055726 H 0.0631787 v -0.0014966 h 0.0079585 v 0.0011682 z m 0,0"
         style="fill:none;stroke:none"
         aria-label="ETAPA 3"
         transform="matrix(1,0,0,1.6254355,0.46554,0.50307)" />
    </clipPath>
    <clipPath
       clipPathUnits="userSpaceOnUse"
       id="clipPath4">
      <path
         id="path4"
         d="M 0.01055439,-0.00149677 V -1.4737916e-7 H 0.0018097 V -0.01205384 h 0.00850776 v 0.0014966 H 0.00353279 v 0.00370386 h 0.00604159 v 0.00146431 H 0.00353279 v 0.00389228 z m 0.0051827,-0.00906045 h -0.00413 v -0.0014966 h 0.009967 v 0.0014966 h -0.00413 V -1.4737916e-7 h -0.0017069 z m 0.01479301,0.0075423 H 0.02412239 L 0.02279777,-1.4737916e-7 H 0.02102621 L 0.02648626,-0.01205384 h 0.0017015 L 0.03366402,-1.4737916e-7 H 0.03185477 Z M 0.02992706,-0.0043931 0.02732627,-0.01029882 0.02472548,-0.0043931 Z m 0.01023086,-0.00766074 c 0.0015616,0 0.0027892,3.7415e-4 0.0036831,0.0011198 8.9655e-4,7.4696e-4 0.0013462,0.00177387 0.0013462,0.00307937 0,0.00131089 -4.4961e-4,0.00233914 -0.0013462,0.00308476 -8.9386e-4,7.4696e-4 -0.0021216,0.00111977 -0.0036831,0.00111977 H 0.0371802 V -1.4737916e-7 H 0.03545711 V -0.01205384 Z m -5.385e-5,0.00690167 c 0.0010904,0 0.0019237,-2.3149e-4 0.0024985,-6.9448e-4 5.7346e-4,-4.6567e-4 8.6154e-4,-0.00113592 8.6154e-4,-0.00200805 0,-8.7213e-4 -2.8808e-4,-0.00153968 -8.6154e-4,-0.00200267 -5.7482e-4,-4.6567e-4 -0.0014081,-6.9985e-4 -0.0024985,-6.9985e-4 H 0.0371802 v 0.00540505 z m 0.01468936,0.00213725 H 0.04838568 L 0.04706106,-1.4737916e-7 H 0.0452895 L 0.05074955,-0.01205384 H 0.0524511 L 0.05792731,-1.4737916e-7 H 0.05611806 Z M 0.05419035,-0.0043931 0.05158956,-0.01029882 0.04898877,-0.0043931 Z m 0.01966614,0.00143202 H 0.071568 V -1.4737916e-7 H 0.06989876 V -0.00296108 h -0.0066985 v -0.00120591 l 0.0061601,-0.00788685 h 0.0018631 l -0.005907,0.00761229 h 0.0046308 V -0.00706332 H 0.071568 v 0.00262177 h 0.0022885 z m 0,0"
         style="fill:none;stroke:none"
         aria-label="ETAPA 4"
         transform="matrix(1,0,0,1.6254355,0.46554,0.31364)" />
    </clipPath>
    <clipPath
       clipPathUnits="userSpaceOnUse"
       id="clipPath5">
      <path
         id="path5"
         d="M 0.00943979,-0.00278835 H 0.00340896 L 0.00222434,3.1233013e-7 H -8.5682139e-5 L 0.00533667,-0.01205338 H 0.00754439 L 0.01298289,3.1233013e-7 H 0.01064057 Z M 0.0086967,-0.00454876 0.00642438,-0.00981384 0.0041682,-0.00454876 Z M 0.01992507,1.72585e-4 c -0.0012169,0 -0.0023181,-2.66484099e-4 -0.0033008,-8.0214405e-4 C 0.01564426,-0.00116387 0.0148756,-0.00190142 0.01431964,-0.00284218 c -5.5732e-4,-9.3943e-4 -8.3463e-4,-0.00200267 -8.3463e-4,-0.00318705 0,-0.00118033 2.8001e-4,-0.00224089 8.4001e-4,-0.00318166 5.627e-4,-9.4346e-4 0.0013354,-0.001681 0.0023154,-0.00221262 9.827e-4,-5.3432e-4 0.0020839,-8.0215e-4 0.0033008,-8.0215e-4 9.8673e-4,0 0.0018873,1.7228e-4 0.0027031,5.1682e-4 8.1443e-4,3.4455e-4 0.0015037,8.4387e-4 0.0020677,0.0014966 l -0.0014485,0.00136203 c -8.7231e-4,-9.4346e-4 -0.0019465,-0.00141586 -0.00322,-0.00141586 -8.2654e-4,0 -0.0015669,1.8169e-4 -0.0022239,5.4373e-4 -6.5424e-4,3.6339e-4 -0.0011631,8.654e-4 -0.0015292,0.00150739 -3.6615e-4,6.4333e-4 -5.4923e-4,0.00137145 -5.4923e-4,0.0021857 0,8.1561e-4 1.8308e-4,0.00154507 5.4923e-4,0.00219109 3.6616e-4,6.4333e-4 8.7501e-4,0.00114535 0.0015292,0.00150739 6.5693e-4,3.5935e-4 0.0013973,5.3835e-4 0.0022239,5.3835e-4 0.0012735,0 0.0023477,-4.7509e-4 0.00322,-0.00142663 l 0.0014485,0.00137818 c -5.6405e-4,6.541e-4 -0.0012573,0.001152072 -0.0020785,0.001496617 C 0.02181509,3.1233013e-7 0.02091181,1.7258488e-4 0.01992507,1.72585e-4 Z m 0.01226088,0 c -0.0012169,0 -0.0023181,-2.66484099e-4 -0.0033008,-8.0214405e-4 -9.8001e-4,-5.3431095e-4 -0.0017487,-0.001271861 -0.0023046,-0.002212621 -5.5731e-4,-9.3943e-4 -8.3462e-4,-0.00200267 -8.3462e-4,-0.00318705 0,-0.00118033 2.8e-4,-0.00224089 8.4001e-4,-0.00318166 5.627e-4,-9.4346e-4 0.0013354,-0.001681 0.0023154,-0.00221262 9.8271e-4,-5.3432e-4 0.0020839,-8.0215e-4 0.0033008,-8.0215e-4 9.8674e-4,0 0.0018873,1.7228e-4 0.0027031,5.1682e-4 8.1443e-4,3.4455e-4 0.0015037,8.4387e-4 0.0020677,0.0014966 l -0.0014485,0.00136203 c -8.7232e-4,-9.4346e-4 -0.0019466,-0.00141586 -0.00322,-0.00141586 -8.2654e-4,0 -0.0015669,1.8169e-4 -0.0022239,5.4373e-4 -6.5424e-4,3.6339e-4 -0.0011631,8.654e-4 -0.0015292,0.00150739 -3.6616e-4,6.4333e-4 -5.4923e-4,0.00137145 -5.4923e-4,0.0021857 0,8.1561e-4 1.8307e-4,0.00154507 5.4923e-4,0.00219109 3.6616e-4,6.4333e-4 8.7501e-4,0.00114535 0.0015292,0.00150739 6.5692e-4,3.5935e-4 0.0013973,5.3835e-4 0.0022239,5.3835e-4 0.0012735,0 0.0023477,-4.7509e-4 0.00322,-0.00142663 l 0.0014485,0.00137818 c -5.6404e-4,6.541e-4 -0.0012573,0.001152072 -0.0020785,0.001496617 C 0.03407597,3.1233013e-7 0.03317269,1.7258488e-4 0.03218595,1.72585e-4 Z M 0.04816628,-0.00187854 V 3.1233013e-7 H 0.03912543 V -0.01205338 h 0.0087985 v 0.0018735 h -0.0065639 v 0.00313859 h 0.0058208 v 0.00184116 h -0.0058208 v 0.00332163 z m 0.0062341,0.002051125 c -9.3021e-4,0 -0.0018294,-1.31896172e-4 -0.0026977,-3.9299675e-4 -8.6559e-4,-2.6513822e-4 -0.0015508,-6.1641271e-4 -0.0020569,-0.001055168 l 7.7539e-4,-0.00173888 c 4.9135e-4,3.9165e-4 0.0010958,7.1063e-4 0.0018146,9.5827e-4 7.1751e-4,2.4495e-4 0.001439,3.6608e-4 0.0021646,3.6608e-4 8.9385e-4,0 0.0015616,-1.4132e-4 0.0020031,-4.253e-4 4.4154e-4,-2.8667e-4 6.6231e-4,-6.6756e-4 6.6231e-4,-0.00114131 0,-3.4454e-4 -1.2384e-4,-6.2718e-4 -3.7154e-4,-8.5059e-4 -2.45e-4,-2.2207e-4 -5.5731e-4,-3.9569e-4 -9.3693e-4,-5.222e-4 -3.7693e-4,-1.2921e-4 -8.9385e-4,-2.7456e-4 -0.0015508,-4.3607e-4 -9.154e-4,-2.1534e-4 -0.0016585,-4.3202e-4 -0.0022293,-6.514e-4 -5.6809e-4,-2.1804e-4 -0.0010554,-5.5989e-4 -0.0014646,-0.00102287 -4.0654e-4,-4.6568e-4 -6.0847e-4,-0.00109555 -6.0847e-4,-0.00188962 0,-6.6351e-4 1.7904e-4,-0.00126781 5.3847e-4,-0.00181424 3.6212e-4,-5.4508e-4 9.0731e-4,-9.7711e-4 0.0016369,-0.0012974 7.3231e-4,-3.2301e-4 0.0016262,-4.8452e-4 0.0026816,-4.8452e-4 7.3231e-4,0 0.0014539,9.152e-5 0.0021646,2.7456e-4 7.1347e-4,1.8304e-4 0.00133,4.4684e-4 0.0018469,7.9138e-4 l -7.0539e-4,0.00173888 c -5.277e-4,-3.0821e-4 -0.0010796,-5.4374e-4 -0.0016531,-7.0524e-4 -5.7481e-4,-1.6151e-4 -0.0011308,-2.4226e-4 -0.0016692,-2.4226e-4 -8.8712e-4,0 -0.0015454,1.5074e-4 -0.0019762,4.5221e-4 -4.3077e-4,2.9879e-4 -6.4616e-4,6.9313e-4 -6.4616e-4,0.00118438 0,3.4454e-4 1.2385e-4,6.2718e-4 3.7154e-4,8.4521e-4 2.477e-4,2.1938e-4 5.6001e-4,3.9165e-4 9.3694e-4,5.1682e-4 3.7961e-4,1.2651e-4 8.9654e-4,2.6917e-4 0.0015508,4.3068e-4 8.9655e-4,2.0457e-4 0.0016329,4.1991e-4 0.0022077,6.4602e-4 5.7347e-4,2.2342e-4 0.0010635,5.6392e-4 0.00147,0.00102287 4.0924e-4,4.6029e-4 6.1385e-4,0.00108074 6.1385e-4,0.0018627 0,6.6486e-4 -1.8173e-4,0.00126781 -5.4385e-4,0.00180886 -3.6346e-4,5.3835e-4 -9.127e-4,9.6903108e-4 -0.0016477,0.001292042 C 0.05634952,1.2455634e-5 0.05545564,1.7261527e-4 0.05440038,1.72585e-4 Z m 0.01272126,0 c -0.0012277,0 -0.0023356,-2.66484099e-4 -0.0033223,-8.0214405e-4 -9.8808e-4,-5.3431095e-4 -0.0017635,-0.001273201 -0.0023262,-0.002218011 -5.6001e-4,-9.475e-4 -8.4001e-4,-0.00200805 -8.4001e-4,-0.00318166 0,-0.00116957 2.8e-4,-0.00222877 8.4001e-4,-0.00317627 5.627e-4,-9.475e-4 0.0013381,-0.00168639 0.0023262,-0.00221801 9.8674e-4,-5.3432e-4 0.0020946,-8.0215e-4 0.0033223,-8.0215e-4 0.0012304,0 0.0023396,2.6783e-4 0.0033277,8.0215e-4 9.8674e-4,5.3162e-4 0.0017608,0.0012692 0.0023208,0.00221262 5.627e-4,9.4077e-4 8.4539e-4,0.00200133 8.4539e-4,0.00318166 0,0.00118438 -2.8269e-4,0.00224762 -8.4539e-4,0.00318705 -5.6e-4,9.4076e-4 -0.0013341,0.00167831 -0.0023208,0.002212621 C 0.06946126,-9.3899099e-5 0.06835204,1.72585e-4 0.06712164,1.72585e-4 Z m 0,-0.001964985 c 8.0366e-4,0 0.0015266,-1.79e-4 0.00217,-5.3835e-4 6.4212e-4,-3.6204e-4 0.0011469,-8.6809e-4 0.0015131,-0.00151815 3.6885e-4,-6.4872e-4 5.5462e-4,-0.00137549 5.5462e-4,-0.00218033 0,-8.0349e-4 -1.8577e-4,-0.00152892 -5.5462e-4,-0.00217494 -3.6616e-4,-6.4871e-4 -8.7097e-4,-0.00115476 -0.0015131,-0.00151815 -6.4347e-4,-3.6204e-4 -0.0013664,-5.4373e-4 -0.00217,-5.4373e-4 -8.0501e-4,0 -0.0015279,1.8169e-4 -0.00217,5.4373e-4 -6.4347e-4,3.6339e-4 -0.0011469,8.6944e-4 -0.0015131,0.00151815 -3.6616e-4,6.4602e-4 -5.4923e-4,0.00137145 -5.4923e-4,0.00217494 0,8.0484e-4 1.8307e-4,0.00153161 5.4923e-4,0.00218033 3.6616e-4,6.5006e-4 8.6962e-4,0.00115611 0.0015131,0.00151815 6.4212e-4,3.5935e-4 0.001365,5.3835e-4 0.00217,5.3835e-4 z m -0.06963311,0.0104023 c 0.00104462,0 0.001951938,1.7227e-4 0.002724637,5.1682e-4 7.7539145e-4,3.4454e-4 0.001369053,8.3848e-4 0.001782323,0.00148047 4.1597e-4,6.4333e-4 6.2462e-4,0.0014051 6.2462e-4,0.002288 0,8.7213e-4 -2.0865e-4,0.0016339 -6.2462e-4,0.0022826 C 0.00158222,0.01582785 9.88558e-4,0.01632449 2.13167e-4,0.01666899 -5.5953212e-4,0.01701353 -0.00146685,0.0171858 -0.00251147,0.0171858 H -0.00523611 V 0.0206636 H -0.00747075 V 0.0086099 Z m -1.077e-4,0.00668095 c 9.7597e-4,0 0.001717711,-2.0592e-4 0.00222387,-6.1911e-4 5.0615831e-4,-4.1184e-4 7.5923746e-4,-0.001004 7.5923746e-4,-0.0017766 0,-7.6715e-4 -2.5307915e-4,-0.001358 -7.5923746e-4,-0.0017712 -5.0615831e-4,-4.1183e-4 -0.0012479,-6.191e-4 -0.00222387,-6.191e-4 h -0.00261694 v 0.004786 z m 0.0153611,0.0053728 -0.0024608,-0.0035316 c -1.05e-4,1.077e-5 -2.5846e-4,1.615e-5 -4.6308e-4,1.615e-5 H 0.00709342 V 0.0206636 H 0.00485878 V 0.0086099 h 0.00495928 c 0.00104462,0 0.00195194,1.7227e-4 0.00272464,5.1682e-4 7.7539e-4,3.4454e-4 0.001369,8.3848e-4 0.0017823,0.00148047 4.1597e-4,6.4333e-4 6.2462e-4,0.0014051 6.2462e-4,0.002288 0,9.0847e-4 -2.2346e-4,0.0016904 -6.677e-4,0.0023472 -4.4154e-4,6.5409e-4 -0.0010756,0.00114 -0.0019008,0.0014589 l 0.0027731,0.0039623 z m -4.846e-5,-0.0077684 c 0,-7.6715e-4 -2.5308e-4,-0.001358 -7.5924e-4,-0.0017712 -5.0616e-4,-4.1183e-4 -0.0012479,-6.191e-4 -0.00222386,-6.191e-4 H 0.00709342 v 0.004802 h 0.00261695 c 9.7597e-4,0 0.0017177,-2.0727e-4 0.00222386,-6.2449e-4 5.0616e-4,-4.1991e-4 7.5924e-4,-0.0010148 7.5924e-4,-0.0017873 z m 0.004752,-0.00428528 h 0.0022346 v 0.0120537 h -0.0022346 z m 0.0162038,0 V 0.0206636 H 0.03180768 L 0.02515762,0.01250218 V 0.0206636 H 0.02293914 V 0.0086099 h 0.0018416 l 0.0066447,0.00816141 V 0.0086099 Z m 0.008816,0.01222597 c -0.0012169,0 -0.0023181,-2.6648e-4 -0.0033008,-8.0214e-4 -9.8001e-4,-5.3432e-4 -0.0017487,-0.0012719 -0.0023046,-0.0022126 -5.5732e-4,-9.3942e-4 -8.3463e-4,-0.0020027 -8.3463e-4,-0.003187 0,-0.0011803 2.8001e-4,-0.0022409 8.4001e-4,-0.0031817 5.627e-4,-9.4346e-4 0.0013354,-0.001681 0.0023154,-0.00221263 9.827e-4,-5.3431e-4 0.0020839,-8.0214e-4 0.0033008,-8.0214e-4 9.8674e-4,0 0.0018873,1.7227e-4 0.0027031,5.1682e-4 8.1443e-4,3.4454e-4 0.0015037,8.4386e-4 0.0020677,0.00149661 l -0.0014485,0.001362 c -8.7231e-4,-9.4346e-4 -0.0019465,-0.0014159 -0.00322,-0.0014159 -8.2654e-4,0 -0.0015669,1.8169e-4 -0.0022239,5.4373e-4 -6.5424e-4,3.6339e-4 -0.0011631,8.6541e-4 -0.0015292,0.0015074 -3.6615e-4,6.4333e-4 -5.4923e-4,0.0013714 -5.4923e-4,0.0021857 0,8.156e-4 1.8308e-4,0.0015451 5.4923e-4,0.0021911 3.6616e-4,6.4333e-4 8.7501e-4,0.0011453 0.0015292,0.0015074 6.5693e-4,3.5935e-4 0.0013973,5.3836e-4 0.0022239,5.3836e-4 0.0012735,0 0.0023477,-4.751e-4 0.00322,-0.0014266 l 0.0014485,0.0013782 c -5.6405e-4,6.541e-4 -0.0012573,0.0011521 -0.0020785,0.0014966 -8.1847e-4,3.4455e-4 -0.0017218,5.1682e-4 -0.0027085,5.1679e-4 z M 0.0494061,0.0086099 H 0.0516407 V 0.0206636 H 0.0494061 Z m 0.01045298,0 c 0.0010446,0 0.0019519,1.7227e-4 0.0027246,5.1682e-4 7.7539e-4,3.4454e-4 0.0013691,8.3848e-4 0.0017823,0.00148047 4.1597e-4,6.4333e-4 6.2462e-4,0.0014051 6.2462e-4,0.002288 0,8.7213e-4 -2.0865e-4,0.0016339 -6.2462e-4,0.0022826 -4.1327e-4,6.5006e-4 -0.0010069,0.0011467 -0.0017823,0.0014912 -7.727e-4,3.4454e-4 -0.00168,5.1681e-4 -0.0027246,5.1681e-4 H 0.05713444 V 0.0206636 H 0.0548998 V 0.0086099 Z m -1.077e-4,0.00668095 c 9.7597e-4,0 0.0017177,-2.0592e-4 0.0022239,-6.1911e-4 5.0616e-4,-4.1184e-4 7.5924e-4,-0.001004 7.5924e-4,-0.0017766 0,-7.6715e-4 -2.5308e-4,-0.001358 -7.5924e-4,-0.0017712 -5.0616e-4,-4.1183e-4 -0.0012479,-6.191e-4 -0.0022239,-6.191e-4 h -0.0026169 v 0.004786 z m 0.0146934,0.0025841 h -0.0060308 l -0.0011846,0.0027887 h -0.00231 l 0.0054224,-0.0120537 h 0.0022077 l 0.0054385,0.0120537 H 0.07564556 Z M 0.0737017,0.01611452 0.07142937,0.01084945 0.0691732,0.01611452 Z M 0.07952387,0.0086099 h 0.0022346 v 0.0101587 h 0.0063054 v 0.001895 h -0.0085401 z m 0,0"
         style="fill:none;stroke:none"
         aria-label="ACCESO &#10;PRINCIPAL"
         transform="matrix(1,0,0,1.6254355,0.04617705,0.83801002)" />
    </clipPath>
  </defs>
  <sodipodi:namedview
     id="namedview1"
     pagecolor="#ffffff"
     bordercolor="#000000"
     borderopacity="0.25"
     inkscape:showpageshadow="2"
     inkscape:pageopacity="0.0"
     inkscape:pagecheckerboard="0"
     inkscape:deskcolor="#d1d1d1">
    <inkscape:page
       x="0"
       y="0"
       inkscape:label="1"
       id="page1"
       width="2901.76"
       height="1785.6"
       margin="0"
       bleed="0" />
  </sodipodi:namedview>
  <g
     id="g1"
     inkscape:groupmode="layer"
     inkscape:label="1">
    <image
       width="1"
       height="1"
       style="image-rendering:optimizeSpeed"
       preserveAspectRatio="none"
       xlink:href="plano-assets/plano-a062dd1825b1a339.png"
       transform="scale(2901.7601,1785.6)"
       id="image1" />
    <image
       width="1"
       height="1"
       style="image-rendering:optimizeSpeed"
       preserveAspectRatio="none"
       xlink:href="plano-assets/plano-6f7cebf060e1d2c4.png"
       transform="scale(2901.7601,1785.6)"
       id="image2"
       clip-path="url(#clipPath1)" />
    <image
       width="1"
       height="1"
       style="image-rendering:optimizeSpeed"
       preserveAspectRatio="none"
       xlink:href="plano-assets/plano-e35a96f7e2a0968f.png"
       transform="scale(2901.7601,1785.6)"
       id="image3"
       clip-path="url(#clipPath2)" />
    <image
       width="1"
       height="1"
       style="image-rendering:optimizeSpeed"
       preserveAspectRatio="none"
       xlink:href="plano-assets/plano-e18697f77df3c534.png"
       transform="scale(2901.7601,1785.6)"
       id="image4"
       clip-path="url(#clipPath3)" />
    <image
       width="1"
       height="1"
       style="image-rendering:optimizeSpeed"
       preserveAspectRatio="none"
       xlink:href="plano-assets/plano-c53bd11d81bc8b23.png"
       transform="scale(2901.7601,1785.6)"
       id="image5"
       clip-path="url(#clipPath4)" />
    <image
       width="1"
       height="1"
       style="image-rendering:optimizeSpeed"
       preserveAspectRatio="none"
       xlink:href="plano-assets/plano-f9862f5371f8c1a0.png"
       transform="scale(2901.7601,1785.6)"
       id="image6"
       clip-path="url(#clipPath5)" />
  </g>
</svg>
